<svg width="400" height="400" xmlns="http://www.w3.org/2000/svg">

 <g>
  <title>Layer 1</title>
  <text style="cursor: move;" font-style="normal" font-weight="normal" transform="matrix(8.6667 0 0 8.42537 -2140.01 -1187.77)" stroke="#000" xml:space="preserve" text-anchor="start" font-family="'Quicksand SemiBold'" font-size="24" id="svg_1" y="182" x="249.23086" stroke-width="0" fill="#000000">C-K</text>
  <g>
   <title>neuromorphic-computing</title>
   <path fill="#444444" d="m225.63406,181.64499a4,4 0 0 0 -3,0a3.93,3.93 0 0 0 -1.28,0.89l0,0a4.57,4.57 0 0 0 -0.54,0.69a2.82,2.82 0 0 0 -0.23,0.42l-6.35,0l0,-5.49a14.11,14.11 0 0 1 -3,1l-0.53,0.09l0,6.15a1.78,1.78 0 0 0 1.77,1.77l8.14,0l0.21,0.35a3.87,3.87 0 0 0 0.48,0.59l0,0a3.79,3.79 0 0 0 1.29,0.86a3.84,3.84 0 0 0 3,0l0,0a3.89,3.89 0 0 0 1.29,-0.86a3.94,3.94 0 0 0 0.86,-1.29a4,4 0 0 0 0.3,-1.51a4,4 0 0 0 -2.45,-3.67l0.04,0.01zm-46.06,-17.45a10.24,10.24 0 0 1 -3.22,-0.56a13.54,13.54 0 0 1 -5.77,-4a13.11,13.11 0 0 1 -3.14,-6.77a12.35,12.35 0 0 1 0.2,-4.51a14.51,14.51 0 0 1 -2.9,-3.39a12.1,12.1 0 0 1 -1.89,-6.43a11.62,11.62 0 0 1 2.35,-6.8a16.47,16.47 0 0 1 4,-3.78c0,-0.53 0,-1 0,-1.56a14.34,14.34 0 0 1 3.15,-8.6a11.21,11.21 0 0 1 6.93,-4.14l0.3,0a8.77,8.77 0 0 1 0.42,-1.52a10.65,10.65 0 0 1 4.63,-5.39a10.15,10.15 0 0 1 7.1,-1.25a10,10 0 0 1 6.68,5.2a9.64,9.64 0 0 1 13.21,-4.26a11,11 0 0 1 4.66,4.48a9.34,9.34 0 0 1 1,2.71a10,10 0 0 1 3.8,0.54a13.51,13.51 0 0 1 5.88,4.09a13.11,13.11 0 0 1 3.08,7a12.72,12.72 0 0 1 -0.25,4.14a15,15 0 0 1 3.18,3.77l0.07,0.15a11.84,11.84 0 0 1 1.59,6.22a11.47,11.47 0 0 1 -2.28,6.5a16.26,16.26 0 0 1 -4.12,3.82a14.55,14.55 0 0 1 -2.5,9.22a11.48,11.48 0 0 1 -7.56,5a10.63,10.63 0 0 1 -4.32,6.3a10.83,10.83 0 0 1 -9,1.89a9.4,9.4 0 0 1 -6.1,-5.54a10.16,10.16 0 0 1 -7,5.73a10.3,10.3 0 0 1 -8.4,-2.06l-0.13,-0.11a10,10 0 0 1 -3.69,-6.09l0.04,0zm21.08,-49.59l0,46.41a1.84,1.84 0 0 1 0.43,0.91c0.7,4.22 2.56,6.26 4.68,6.84a7.18,7.18 0 0 0 5.91,-1.34a6.56,6.56 0 0 0 3,-5c0,-2.2 -1.55,-4.67 -5.73,-6.8a1.83,1.83 0 1 1 1.66,-3.26c4.56,2.33 6.81,5.2 7.49,8a8,8 0 0 0 4.6,-3.39a11,11 0 0 0 1.78,-7.73l0,-0.13a1.84,1.84 0 0 1 0.88,-1.79a13.36,13.36 0 0 0 4,-3.47a7.82,7.82 0 0 0 1.6,-4.44a8.17,8.17 0 0 0 -1.12,-4.3l-0.08,-0.12a11.76,11.76 0 0 0 -3.11,-3.46a1.84,1.84 0 0 1 -0.71,-2.11a8.89,8.89 0 0 0 0.42,-3.8a9.5,9.5 0 0 0 -2.23,-5a9.88,9.88 0 0 0 -4.26,-3a6.21,6.21 0 0 0 -2.66,-0.34l-0.08,0a10.33,10.33 0 0 1 -2.18,4.08a1.82,1.82 0 1 1 -2.79,-2.35a5.49,5.49 0 0 0 0.88,-6.39a7.17,7.17 0 0 0 -3.08,-2.94a6.31,6.31 0 0 0 -4.12,-0.63c-2,0.42 -4,2.09 -5.2,5.56l0.02,-0.01zm-3.67,46.48l0,-44.22l0,0l0,0l0,0l-0.05,-0.07l0,0l0,0l0,0l0,-0.07l0,0l0,-0.08l0,0l0,0l0,0l0,0l0,0l0,0l0,0l0,0l0,0l0,0l0,0l0,-0.08l0,0l0,-0.11c-1.12,-4.54 -3.34,-6.63 -5.65,-7.11a6.42,6.42 0 0 0 -4.51,0.84a7,7 0 0 0 -3,3.48c-0.72,1.94 -0.31,4.31 2.08,6.53a1.83,1.83 0 0 1 -2.82,2.34a10.9,10.9 0 0 1 -3.33,-5.28a7.56,7.56 0 0 0 -4.53,2.82a10.77,10.77 0 0 0 -2.36,6.46a12.65,12.65 0 0 0 0.11,2.1a1.82,1.82 0 0 1 -0.85,1.81a13.67,13.67 0 0 0 -3.92,3.46a8,8 0 0 0 -1.64,4.63a8.47,8.47 0 0 0 1.32,4.52a11.41,11.41 0 0 0 2.92,3.14a1.85,1.85 0 0 1 0.69,2.09a8.86,8.86 0 0 0 -0.41,4.09a9.6,9.6 0 0 0 2.32,4.91a9.87,9.87 0 0 0 4.18,2.88a6.25,6.25 0 0 0 2.22,0.37c0.77,-2.89 3.11,-5.81 7.74,-8.18a1.83,1.83 0 0 1 1.67,3.26c-4.4,2.24 -6.06,4.87 -6.06,7.19a6.15,6.15 0 0 0 2.43,4.63l0.11,0.07a6.68,6.68 0 0 0 5.34,1.41c2.32,-0.48 4.54,-2.58 5.66,-7.13a1.66,1.66 0 0 1 0.34,-0.69l0,-0.01zm-16.72,-33.09a1.83,1.83 0 0 1 2.56,2.61a10.76,10.76 0 0 0 -3.23,7.28a11.8,11.8 0 0 0 2.64,7.86a1.83,1.83 0 1 1 -2.88,2.29a15.4,15.4 0 0 1 -3.44,-10.29a14.44,14.44 0 0 1 4.32,-9.75l0.03,0zm32.43,1.54a1.83,1.83 0 0 1 2.15,-3q0.67,0.49 1.26,1a14.44,14.44 0 0 1 4.76,9.61a15.3,15.3 0 0 1 -2.93,10.25a14.46,14.46 0 0 1 -1.06,1.31a1.83,1.83 0 1 1 -2.72,-2.45a12.93,12.93 0 0 0 0.82,-1a11.75,11.75 0 0 0 2.24,-7.81a10.81,10.81 0 0 0 -3.56,-7.18a10.43,10.43 0 0 0 -1,-0.77l0.04,0.04zm-25.53,52.84l0,-2.91a12,12 0 0 1 -2.32,-0.35c-0.42,-0.11 -0.82,-0.23 -1.22,-0.37l0,1.86l-5.22,0c-0.07,-0.14 -0.15,-0.27 -0.23,-0.4a4.22,4.22 0 0 0 -0.53,-0.67l0,0a3.94,3.94 0 0 0 -1.29,-0.86a4,4 0 0 0 -1.51,-0.3a3.92,3.92 0 0 0 -2.78,1.16l0,0a4.22,4.22 0 0 0 -0.86,1.29a4,4 0 0 0 -0.3,1.52a3.9,3.9 0 0 0 0.31,1.52a3.8,3.8 0 0 0 0.83,1.25l0,0a3.79,3.79 0 0 0 1.26,0.85l0,0a4,4 0 0 0 3,0a4,4 0 0 0 1.26,-0.83l0,0a4.14,4.14 0 0 0 0.52,-0.64c0.07,-0.11 0.15,-0.24 0.21,-0.36l7,0a1.78,1.78 0 0 0 1.77,-1.77l0.1,0.01zm8.54,13.87l0,-20.16a12.62,12.62 0 0 1 -1.35,1.15a11,11 0 0 1 -2.19,1.3l0,16l-11.55,0l-0.18,-0.3a4.08,4.08 0 0 0 -0.46,-0.54a3.79,3.79 0 0 0 -1.29,-0.86a3.86,3.86 0 0 0 -3,0a3.79,3.79 0 0 0 -1.29,0.86a3.94,3.94 0 0 0 -0.86,1.29a3.84,3.84 0 0 0 -0.3,1.51a3.89,3.89 0 0 0 0.3,1.52a4,4 0 0 0 0.86,1.29a3.94,3.94 0 0 0 1.29,0.86a4,4 0 0 0 1.51,0.3a3.88,3.88 0 0 0 1.49,-0.29l0,0a4,4 0 0 0 1.29,-0.86a4.41,4.41 0 0 0 0.59,-0.76a3.62,3.62 0 0 0 0.25,-0.48l13.12,0a1.78,1.78 0 0 0 1.77,-1.77l0,-0.06zm9.65,-3.36l0,-14a10.37,10.37 0 0 1 -3.52,-1.91l0,0l0,15.93l-0.39,0.22a4.7,4.7 0 0 0 -0.65,0.53a3.94,3.94 0 0 0 -0.86,1.29a4,4 0 0 0 -0.3,1.51a3.92,3.92 0 0 0 0.29,1.49l0,0a4,4 0 0 0 5.18,2.15a3.94,3.94 0 0 0 1.29,-0.86a4,4 0 0 0 1.17,-2.81a4.06,4.06 0 0 0 -0.29,-1.48l0,0a3.79,3.79 0 0 0 -0.86,-1.29a3.44,3.44 0 0 0 -0.62,-0.51l0,0c-0.12,-0.08 -0.25,-0.15 -0.38,-0.22l-0.06,-0.04zm-48,-41.68l3.3,0a16.15,16.15 0 0 0 -0.2,1.94c0,0.54 0,1.07 0,1.6l-1.29,0l0,5.22l0.4,0.22a5,5 0 0 1 0.67,0.54l0,0a4,4 0 0 1 0.86,4.32a4.12,4.12 0 0 1 -0.83,1.26l0,0a4,4 0 0 1 -1.29,0.86a4,4 0 0 1 -3,0a4,4 0 0 1 -1.26,-0.84l0,0a4,4 0 0 1 -0.85,-1.26l0,0a3.89,3.89 0 0 1 -0.3,-1.52a4,4 0 0 1 1.13,-2.77l0,0a3.63,3.63 0 0 1 0.64,-0.52c0.11,-0.08 0.24,-0.15 0.36,-0.22l0,-7a1.78,1.78 0 0 1 0.52,-1.25a1.75,1.75 0 0 1 1.14,-0.58zm-13.83,-8.54l12.23,0a15.8,15.8 0 0 0 1.6,3.49l0,0l0,0l-12.07,0l0,11.59l0.3,0.19a3.45,3.45 0 0 1 0.54,0.46a4,4 0 0 1 1.17,2.8a4,4 0 0 1 -1.17,2.81a4.11,4.11 0 0 1 -1.29,0.86a4,4 0 0 1 -1.51,0.3a4.08,4.08 0 0 1 -1.52,-0.3a4.22,4.22 0 0 1 -1.29,-0.86a4.16,4.16 0 0 1 -0.86,-1.29a4.08,4.08 0 0 1 -0.3,-1.52a4,4 0 0 1 0.29,-1.49l0,0a4,4 0 0 1 0.86,-1.28a3.61,3.61 0 0 1 0.76,-0.59a2.73,2.73 0 0 1 0.49,-0.3l0,-13.11a1.76,1.76 0 0 1 1.77,-1.76zm3.36,-9.68l9.4,0c-0.17,0.36 -0.31,0.73 -0.44,1.09a14.43,14.43 0 0 0 -0.59,2.46l-8.37,0a3.61,3.61 0 0 1 -0.22,0.39a3.76,3.76 0 0 1 -0.53,0.65a3.79,3.79 0 0 1 -1.29,0.86a3.84,3.84 0 0 1 -1.51,0.3a3.88,3.88 0 0 1 -1.49,-0.29l0,0a3.89,3.89 0 0 1 -1.32,-0.91a3.94,3.94 0 0 1 -0.86,-1.29a4,4 0 0 1 0,-3a3.94,3.94 0 0 1 0.86,-1.29a4,4 0 0 1 2.83,-1.17a3.87,3.87 0 0 1 1.48,0.29l0,0a3.92,3.92 0 0 1 1.81,1.46l0,0c0.08,0.13 0.15,0.26 0.22,0.39l0.02,0.06zm11.24,-20.25a4,4 0 0 1 0.3,1.51a4,4 0 0 1 -0.3,1.52a3.82,3.82 0 0 1 -0.84,1.25l0,0a4.63,4.63 0 0 1 -0.69,0.55a4.16,4.16 0 0 1 -0.42,0.23l0,6.34l6.55,0l0,0.31c0,0.24 0,0.49 0,0.75a0.67,0.67 0 0 1 -0.27,0.58a21.78,21.78 0 0 0 -2.33,1.9l-5.77,0a1.78,1.78 0 0 1 -1.77,-1.76l0,-8.15a2.5,2.5 0 0 1 -0.35,-0.21a4.51,4.51 0 0 1 -0.59,-0.47l0,0a4,4 0 0 1 -0.86,-1.29a3.86,3.86 0 0 1 -0.31,-1.52a4.16,4.16 0 0 1 0.29,-1.49l0,0a3.85,3.85 0 0 1 0.86,-1.28a3.79,3.79 0 0 1 1.29,-0.86a3.85,3.85 0 0 1 1.51,-0.31a4,4 0 0 1 2.81,1.17a4.11,4.11 0 0 1 0.86,1.29l0.03,-0.06zm50.83,-17.2l0,2.74c0.37,0 0.73,0 1.09,0.1a12.06,12.06 0 0 1 2.45,0.62l0,-1.65l5.23,0a3.11,3.11 0 0 0 0.22,0.4a5,5 0 0 0 0.54,0.67l0,0a3.94,3.94 0 0 0 1.29,0.86a4,4 0 0 0 1.51,0.3a4.08,4.08 0 0 0 1.52,-0.3a4.12,4.12 0 0 0 1.26,-0.83l0,0a4,4 0 0 0 0.86,-4.33a4.15,4.15 0 0 0 -0.84,-1.26l0,0a3.79,3.79 0 0 0 -1.26,-0.85l0,0a3.8,3.8 0 0 0 -1.51,-0.3a3.89,3.89 0 0 0 -1.52,0.3a4,4 0 0 0 -1.26,0.83l0,0a3.59,3.59 0 0 0 -0.51,0.64c-0.08,0.11 -0.15,0.24 -0.22,0.36l-7,0a1.78,1.78 0 0 0 -1.85,1.7zm-8.54,-13.83l0,20a12.87,12.87 0 0 1 1.51,-1.3a11.16,11.16 0 0 1 2,-1.16l0,-15.78l11.58,0c0.06,0.1 0.12,0.2 0.19,0.3a4,4 0 0 0 0.45,0.54a3.89,3.89 0 0 0 1.29,0.86a3.95,3.95 0 0 0 4.32,-0.86a3.79,3.79 0 0 0 0.86,-1.29a3.85,3.85 0 0 0 0.31,-1.48a3.9,3.9 0 0 0 -0.31,-1.52a3.89,3.89 0 0 0 -0.86,-1.29a3.94,3.94 0 0 0 -1.29,-0.89a4,4 0 0 0 -1.51,-0.3a3.92,3.92 0 0 0 -1.49,0.29l0,0a4.16,4.16 0 0 0 -1.29,0.86a4.41,4.41 0 0 0 -0.59,0.76a5.39,5.39 0 0 0 -0.23,0.49l-13.17,0a1.78,1.78 0 0 0 -1.77,1.77zm-9.67,3.36l0,13.66a11,11 0 0 1 3.41,1.66l0.11,0.08a0.28,0.28 0 0 0 0,-0.09l0,-15.31l0.39,-0.22a4.18,4.18 0 0 0 0.7,-0.53a3.94,3.94 0 0 0 0.86,-1.29a4,4 0 0 0 0.26,-1.49a3.88,3.88 0 0 0 -0.29,-1.49l0,0a4,4 0 0 0 -5.19,-2.2a3.94,3.94 0 0 0 -1.29,0.86a4,4 0 0 0 -0.86,1.29a3.85,3.85 0 0 0 -0.3,1.54a3.87,3.87 0 0 0 0.29,1.48l0,0a3.79,3.79 0 0 0 0.86,1.29a3.44,3.44 0 0 0 0.62,0.51l0,0a3.61,3.61 0 0 0 0.39,0.22l0.04,0.03zm-20.26,11.24a4,4 0 0 0 3,0a3.82,3.82 0 0 0 1.25,-0.84l0,0a4.57,4.57 0 0 0 0.54,-0.69a2.82,2.82 0 0 0 0.23,-0.42l6.32,0l0,5.45a12.68,12.68 0 0 1 3.61,-1.27l0,-6a1.78,1.78 0 0 0 -1.77,-1.77l-8.14,0l-0.17,-0.31a3.87,3.87 0 0 0 -0.48,-0.59l0,0a3.79,3.79 0 0 0 -1.29,-0.86a3.85,3.85 0 0 0 -1.51,-0.31a4.12,4.12 0 0 0 -1.49,0.29l0,0a4,4 0 0 0 -1.29,0.86a3.94,3.94 0 0 0 -0.94,1.28a4,4 0 0 0 -0.3,1.51a4.08,4.08 0 0 0 0.3,1.52a4,4 0 0 0 2.15,2.15l-0.02,0zm70.08,30.23l-4.53,0a14.88,14.88 0 0 0 0.23,-2c0,-0.53 0,-1 0,-1.57l2.54,0l0,-5.15a4.47,4.47 0 0 1 -1.07,-0.76l0,0a3.85,3.85 0 0 1 -0.86,-1.28a3.89,3.89 0 0 1 -0.3,-1.52a4,4 0 0 1 1.13,-2.77l0,0a3.79,3.79 0 0 1 1.29,-0.86a3.85,3.85 0 0 1 1.51,-0.31a3.91,3.91 0 0 1 1.53,0.31a3.77,3.77 0 0 1 1.25,0.84l0,0a4.24,4.24 0 0 1 0.85,1.26l0,0a4,4 0 0 1 0,3a4.12,4.12 0 0 1 -0.83,1.26l0,0a4.14,4.14 0 0 1 -0.64,0.52c-0.12,0.07 -0.24,0.15 -0.37,0.21l0,7a1.75,1.75 0 0 1 -0.51,1.25a1.78,1.78 0 0 1 -1.25,0.52l0.03,0.05zm13.87,8.54l-13.27,0a15.56,15.56 0 0 0 -1.42,-3.25l0,0l-0.15,-0.26l13.1,0l0,-11.54l-0.3,-0.18a5,5 0 0 1 -0.55,-0.46a4.11,4.11 0 0 1 -0.86,-1.29a4,4 0 0 1 0,-3a4.11,4.11 0 0 1 0.86,-1.29a4,4 0 0 1 4.32,-0.86a4,4 0 0 1 2.19,2.12a4,4 0 0 1 0,3l0,0a3.79,3.79 0 0 1 -0.86,1.29a4,4 0 0 1 -0.75,0.59a3.62,3.62 0 0 1 -0.48,0.25l0,13.15a1.78,1.78 0 0 1 -1.77,1.77l-0.06,-0.04zm-3.36,9.68l-10.55,0c0.18,-0.39 0.34,-0.79 0.48,-1.18a12.58,12.58 0 0 0 0.6,-2.36l9.47,0c0.07,-0.13 0.14,-0.26 0.22,-0.38a4.2,4.2 0 0 1 0.52,-0.66a4.35,4.35 0 0 1 1.29,-0.86a4,4 0 0 1 3,0l0,0a4,4 0 0 1 2.19,2.22a4.08,4.08 0 0 1 0.3,1.52a3.93,3.93 0 0 1 -0.31,1.52a4,4 0 0 1 -0.85,1.28a4.12,4.12 0 0 1 -1.3,0.87a4,4 0 0 1 -1.51,0.3a4.16,4.16 0 0 1 -1.49,-0.29l0,0a4.19,4.19 0 0 1 -1.29,-0.87a3.87,3.87 0 0 1 -0.5,-0.62l0,0c-0.08,-0.12 -0.15,-0.25 -0.22,-0.38l-0.05,-0.11zm-11.24,20.29a4,4 0 0 1 0,-3a3.93,3.93 0 0 1 0.84,-1.25l0,0a4,4 0 0 1 0.68,-0.54l0.42,-0.23l0,-6.38l-7.74,0c0,-0.41 0,-0.83 0,-1.24a0.66,0.66 0 0 1 0.28,-0.6a21.88,21.88 0 0 0 2.19,-1.71l7.07,0a1.78,1.78 0 0 1 1.78,1.77l0,8.14l0.36,0.21a3.87,3.87 0 0 1 0.59,0.48l0,0a3.94,3.94 0 0 1 0.86,1.29a3.84,3.84 0 0 1 0.3,1.51a3.88,3.88 0 0 1 -0.29,1.49l0,0a4,4 0 0 1 -2.15,2.15a4,4 0 0 1 -3,0a4,4 0 0 1 -2.15,-2.15l-0.04,0.06z"/>
  </g>
 </g>
</svg>